# xmcd CD database file
#
# Track frame offsets:
#	150
#	17847
#	43535
#	59645
#	75767
#	94742
#	113902
#	138305
#	153767
#	171835
#	194957
#	213667
#	233892
#	256515
#	277492
#	295692
#	317222
#
# Disc length: 4530 seconds
#
# Revision: 2
# Processed by: cddbd v1.4PL0 Copyright (c) Steve Scherf et al.
# Submitted via: CDex 1.40Release
#
DISCID=f611b011
DTITLE=Celine Dion - The Power of Love
DYEAR=1900
DGENRE=
TTITLE0=Change the world
TTITLE1=power of love
TTITLE2=Don't know much
TTITLE3=Without you
TTITLE4=Take My breath away
TTITLE5=How am i supposed to live without you
TTITLE6=Everytime you go away
TTITLE7=Against all odds
TTITLE8=Have i told you lately
TTITLE9=Hard to say i m sorry
TTITLE10=Stars
TTITLE11=Total ecllipse of the heart
TTITLE12=Careless whisper
TTITLE13=From a distance
TTITLE14=Somethime when we touch
TTITLE15=Killing me softly with his song
TTITLE16=i want to know what love is
EXTD=
EXTT0=
EXTT1=
EXTT2=
EXTT3=
EXTT4=
EXTT5=
EXTT6=
EXTT7=
EXTT8=
EXTT9=
EXTT10=
EXTT11=
EXTT12=
EXTT13=
EXTT14=
EXTT15=
EXTT16=
PLAYORDER=
